<?xml version="1.0" encoding="utf-8"?>
<!-- Generator: Adobe Illustrator 26.5.1, SVG Export Plug-In . SVG Version: 6.00 Build 0)  -->
<svg version="1.1" id="Laag_1" xmlns="http://www.w3.org/2000/svg" xmlns:xlink="http://www.w3.org/1999/xlink" x="0px" y="0px"
	 viewBox="0 0 226.8 226.8" enable-background="new 0 0 226.8 226.8" xml:space="preserve">
<g>
	<path fill="#613150" d="M120.1,57.8c-3.6-3.6-9.5-3.6-13.1,0l-46.2,46.2c-3.6,3.6-3.6,9.5,0,13.1c3.6,3.6,9.5,3.6,13.1,0l30.5-30.5
		v88.7c0,5.1,4.1,9.2,9.2,9.2c5.1,0,9.2-4.1,9.2-9.2V86.7l30.5,30.5c3.6,3.6,9.5,3.6,13.1,0c3.6-3.6,3.6-9.5,0-13.1L120.1,57.8
		L120.1,57.8z"/>
	<path fill="#A42C3C" d="M68.8,0C75.6,0,81,5.4,81,12.1s-5.4,12.1-12.1,12.1H24.3v44.5c0,6.7-5.4,12.1-12.1,12.1S0,75.6,0,68.8V12.1
		C0,5.4,5.4,0,12.1,0H68.8z M0,157.9c0-6.7,5.4-12.1,12.1-12.1s12.1,5.4,12.1,12.1v44.5h44.5c6.7,0,12.1,5.4,12.1,12.1
		c0,6.7-5.4,12.1-12.1,12.1H12.1c-6.7,0-12.1-5.4-12.1-12.1V157.9z M214.6,0c6.7,0,12.1,5.4,12.1,12.1v56.7
		c0,6.7-5.4,12.1-12.1,12.1c-6.7,0-12.1-5.4-12.1-12.1V24.3h-44.5c-6.7,0-12.1-5.4-12.1-12.1S151.2,0,157.9,0H214.6z M202.5,157.9
		c0-6.7,5.4-12.1,12.1-12.1c6.7,0,12.1,5.4,12.1,12.1v56.7c0,6.7-5.4,12.1-12.1,12.1h-56.7c-6.7,0-12.1-5.4-12.1-12.1
		c0-6.7,5.4-12.1,12.1-12.1h44.5V157.9z"/>
</g>
</svg>
